<svg width="82" height="81" viewBox="0 0 82 81" fill="none" xmlns="http://www.w3.org/2000/svg">
<path d="M40.0063 46.2L47.1219 40H41.6219L42.6188 34.325L36.2594 41H41.0375L40.0063 46.2ZM36.5 50L37.875 43H31L43.375 30H46.125L44.75 38H53L39.25 50H36.5Z" fill="#E8EAED"/>
<path d="M32.5694 13.1573L31.4847 13.3832L32.823 4.18992L33.891 3.96749L38.8271 11.854L37.7424 12.0799L33.675 5.42279L33.6082 5.43669L32.5694 13.1573ZM32.2672 9.73799L36.6393 8.8274L36.8325 9.74477L32.4604 10.6554L32.2672 9.73799Z" fill="white"/>
<path d="M23.5773 7.45582L27.7303 15.1316L26.7984 15.6301L22.6454 7.95433L23.5773 7.45582Z" fill="white"/>
<path d="M18.2801 14.0475C18.0094 13.9127 17.739 13.82 17.4688 13.7693C17.1985 13.7146 16.9315 13.705 16.6678 13.7405C16.4061 13.7739 16.1517 13.8544 15.9046 13.9819C15.6575 14.1094 15.4227 14.2849 15.2003 14.5084C14.8356 14.875 14.5991 15.3019 14.4909 15.7892C14.3827 16.2766 14.4257 16.7911 14.6199 17.333C14.8142 17.8748 15.1806 18.4107 15.7193 18.9407C16.258 19.4707 16.8018 19.8284 17.3507 20.0138C17.8996 20.1992 18.4216 20.2325 18.9165 20.1137C19.4115 19.9949 19.8493 19.7442 20.23 19.3615C20.5827 19.0071 20.8174 18.6203 20.934 18.201C21.0506 17.7777 21.0444 17.3531 20.9152 16.9271C20.786 16.4971 20.5311 16.0948 20.1503 15.7202L20.4274 15.5385L18.5758 17.3992L17.9075 16.7417L20.2521 14.3856L20.9203 15.0431C21.4327 15.5472 21.77 16.0943 21.9323 16.6843C22.0965 17.2724 22.0936 17.8593 21.9234 18.4452C21.7533 19.027 21.4237 19.5636 20.9348 20.0549C20.3897 20.6027 19.7812 20.9564 19.1092 21.1162C18.4392 21.274 17.75 21.2336 17.0416 20.995C16.3353 20.7543 15.654 20.3112 14.9979 19.6657C14.5058 19.1815 14.1285 18.6807 13.8658 18.1633C13.6032 17.6418 13.4534 17.1238 13.4164 16.6092C13.3795 16.0946 13.4514 15.5994 13.6322 15.1237C13.813 14.648 14.1008 14.2118 14.4956 13.8151C14.8202 13.4888 15.1724 13.2336 15.5522 13.0493C15.9319 12.861 16.3221 12.7447 16.7228 12.7006C17.1234 12.6524 17.5224 12.6763 17.9198 12.7723C18.3151 12.8664 18.6917 13.0337 19.0496 13.2742L18.2801 14.0475Z" fill="white"/>
<path d="M13.6227 31.0009L5.63448 27.486L6.8334 24.7919C7.11061 24.169 7.44477 23.7046 7.83587 23.3987C8.22437 23.0916 8.64598 22.9233 9.1007 22.8937C9.55542 22.8641 10.0181 22.9529 10.4888 23.16C10.9594 23.3671 11.334 23.6467 11.6126 23.999C11.8912 24.3512 12.0461 24.7717 12.0774 25.2603C12.1061 25.7478 11.983 26.3004 11.7081 26.9182L10.7379 29.0984L9.8642 28.714L10.8206 26.5649C11.01 26.1392 11.1001 25.7692 11.0907 25.4547C11.0826 25.1376 10.9901 24.8703 10.8132 24.6529C10.6349 24.4316 10.3859 24.2507 10.066 24.1099C9.74618 23.9692 9.44008 23.9059 9.14772 23.92C8.85536 23.9342 8.58584 24.0437 8.33917 24.2486C8.08989 24.4524 7.86939 24.7697 7.67765 25.2006L6.92226 26.8981L14.0523 30.0353L13.6227 31.0009ZM11.7044 25.6688L16.1661 25.2856L15.6671 26.4068L11.2193 26.7589L11.7044 25.6688Z" fill="white"/>
<path d="M12.0468 40.1796L3.3464 39.4959L3.76371 34.2454L4.69833 34.3188L4.36475 38.5158L7.30455 38.7469L7.61652 34.8217L8.55114 34.8952L8.23917 38.8203L11.196 39.0527L11.5349 34.7877L12.4696 34.8612L12.0468 40.1796Z" fill="white"/>
<path d="M3.71754 46.6069L12.1123 44.221L12.3949 45.2039L7.11745 51.6478L7.14099 51.7297L13.7322 49.8564L14.0242 50.8721L5.62938 53.258L5.34684 52.2751L10.636 45.8101L10.6124 45.7282L4.00478 47.6062L3.71754 46.6069Z" fill="white"/>
<path d="M18.9508 58.7817L11.9142 63.9442L8.7756 59.7145L9.53149 59.1599L12.0403 62.541L14.4179 60.7966L12.0716 57.6345L12.8275 57.08L15.1738 60.242L17.5651 58.4876L15.0157 55.0517L15.7715 54.4971L18.9508 58.7817Z" fill="white"/>
<path d="M31.7817 67.236L28.464 75.3081L23.5845 73.3251L23.9409 72.458L27.8413 74.0431L28.9624 71.3156L25.3146 69.8332L25.671 68.9661L29.3188 70.4485L30.4463 67.7053L26.4827 66.0945L26.8391 65.2274L31.7817 67.236Z" fill="white"/>
<path d="M39.5881 68.5125L42.2796 68.6098L41.9605 77.3313L39.1498 77.2296C38.3038 77.199 37.5862 76.9982 36.9971 76.6273C36.4079 76.2591 35.9648 75.7442 35.6678 75.0825C35.3706 74.4236 35.2386 73.6427 35.2716 72.7399C35.3049 71.8314 35.4953 71.0551 35.8429 70.411C36.1905 69.7697 36.6801 69.2843 37.3119 68.9546C37.9436 68.6278 38.7024 68.4804 39.5881 68.5125ZM41.1892 69.5085L39.622 69.4518C38.9009 69.4257 38.2982 69.5432 37.8139 69.8043C37.3296 70.0654 36.9616 70.4486 36.71 70.9541C36.4584 71.4595 36.3196 72.0671 36.2937 72.7769C36.2679 73.4809 36.3607 74.0912 36.5721 74.6077C36.7834 75.1271 37.1126 75.5313 37.5597 75.8204C38.0067 76.1123 38.5709 76.2706 39.2523 76.2952L40.9387 76.3562L41.1892 69.5085Z" fill="white"/>
<path d="M54.2811 70.2342C53.7892 69.4563 53.505 68.6958 53.4285 67.953C53.352 67.2101 53.4623 66.5314 53.7594 65.9168C54.0565 65.3022 54.5206 64.7976 55.1517 64.403C55.7828 64.0085 56.4412 63.8112 57.127 63.8113C57.8127 63.8115 58.4757 64.0068 59.1159 64.3972C59.756 64.7877 60.3221 65.3719 60.814 66.1499C61.3059 66.9279 61.5901 67.6883 61.6666 68.4312C61.7431 69.174 61.6328 69.8528 61.3357 70.4673C61.0386 71.0819 60.5745 71.5865 59.9434 71.9811C59.3123 72.3757 58.6539 72.5729 57.9681 72.5728C57.2824 72.5727 56.6194 72.3774 55.9793 71.9869C55.3391 71.5964 54.7731 71.0122 54.2811 70.2342ZM55.1483 69.6921C55.5522 70.3308 56.0002 70.8028 56.4925 71.1082C56.9823 71.4151 57.4805 71.5677 57.9869 71.566C58.491 71.5658 58.967 71.4256 59.4151 71.1455C59.8631 70.8654 60.1976 70.4987 60.4187 70.0456C60.6373 69.594 60.7148 69.0815 60.6514 68.508C60.5855 67.9361 60.3507 67.3308 59.9468 66.6921C59.5429 66.0534 59.0961 65.5806 58.6062 65.2737C58.114 64.9683 57.6159 64.8157 57.1118 64.8159C56.6054 64.8176 56.1281 64.9585 55.6801 65.2386C55.232 65.5188 54.8987 65.8846 54.6801 66.3362C54.459 66.7894 54.3815 67.3019 54.4473 67.8738C54.5108 68.4473 54.7445 69.0534 55.1483 69.6921Z" fill="white"/>
<path d="M64.7638 55.2886L65.423 54.398L70.5594 62.1277L69.9104 63.0046L60.9611 60.4264L61.6203 59.5359L69.1004 61.7782L69.141 61.7234L64.7638 55.2886ZM67.2716 57.6306L64.6148 61.2203L63.8582 60.6667L66.515 57.077L67.2716 57.6306Z" fill="white"/>
<path d="M73.4829 52.339C73.9122 52.4092 74.2923 52.3026 74.6231 52.0193C74.9539 51.736 75.1931 51.3406 75.3405 50.8332C75.4483 50.4622 75.4826 50.1203 75.4433 49.8075C75.4032 49.4975 75.3007 49.2345 75.1356 49.0186C74.9698 48.8054 74.753 48.6604 74.4854 48.5835C74.2616 48.5192 74.0536 48.5171 73.8616 48.5772C73.6715 48.6408 73.4987 48.7419 73.343 48.8804C73.1901 49.0197 73.0526 49.1724 72.9304 49.3383C72.811 49.5049 72.7082 49.6601 72.622 49.8039L72.1454 50.5891C72.0246 50.7909 71.8749 51.011 71.6962 51.2493C71.5167 51.4903 71.3039 51.7085 71.0578 51.9038C70.8136 52.1027 70.533 52.2437 70.2159 52.327C69.8988 52.4103 69.5437 52.3955 69.1505 52.2825C68.6972 52.1523 68.3222 51.916 68.0252 51.5735C67.7275 51.2338 67.5366 50.8065 67.4525 50.2916C67.3676 49.7795 67.4187 49.2016 67.6058 48.5577C67.7802 47.9576 68.0281 47.4657 68.3496 47.0822C68.6703 46.7014 69.0405 46.4353 69.4602 46.284C69.8791 46.1354 70.3227 46.1106 70.7909 46.2096L70.4865 47.2572C70.1618 47.1935 69.8688 47.2246 69.6074 47.3505C69.3479 47.4799 69.126 47.6733 68.9418 47.9307C68.7594 48.1916 68.6199 48.4885 68.5232 48.8213C68.4106 49.2087 68.3724 49.5746 68.4084 49.9189C68.4471 50.2641 68.5537 50.5592 68.728 50.8044C68.905 51.0504 69.1464 51.2173 69.4523 51.3051C69.7308 51.3851 69.98 51.3725 70.1999 51.2672C70.4198 51.1619 70.6213 50.9981 70.8042 50.7758C70.9872 50.5534 71.1624 50.3067 71.3299 50.0356L71.9245 49.0891C72.3031 48.4885 72.7227 48.0475 73.1832 47.766C73.6436 47.4844 74.1565 47.4249 74.7217 47.5873C75.1913 47.7222 75.564 47.9667 75.8398 48.3208C76.1175 48.6785 76.2907 49.1007 76.3593 49.5874C76.4298 50.0776 76.3874 50.5901 76.2321 51.1248C76.0751 51.665 75.8386 52.1173 75.5227 52.4817C75.2095 52.8469 74.8507 53.1044 74.4462 53.2542C74.0409 53.4068 73.6247 53.4291 73.1975 53.3211L73.4829 52.339Z" fill="white"/>
<path d="M73.6235 41.9367C72.7064 42.0146 71.8995 41.9163 71.2031 41.6419C70.5066 41.3674 69.9524 40.9569 69.5404 40.4102C69.1285 39.8636 68.8907 39.2194 68.827 38.4778C68.7633 37.7363 68.8879 37.0614 69.2006 36.4532C69.5134 35.845 69.9895 35.347 70.6291 34.9591C71.2688 34.5712 72.0471 34.3383 72.9643 34.2604C73.8814 34.1825 74.6883 34.2808 75.3848 34.5553C76.0812 34.8297 76.6355 35.2402 77.0474 35.7869C77.4593 36.3336 77.6971 36.9777 77.7608 37.7193C77.8245 38.4609 77.6999 39.1357 77.3872 39.7439C77.0745 40.3521 76.5983 40.8502 75.9587 41.238C75.3191 41.6259 74.5407 41.8588 73.6235 41.9367ZM73.536 40.9177C74.289 40.8538 74.9137 40.6739 75.4101 40.378C75.9067 40.0849 76.2697 39.7134 76.4991 39.2634C76.7287 38.8162 76.8209 38.3294 76.7757 37.8029C76.7305 37.2764 76.5565 36.8108 76.2537 36.406C75.9511 36.004 75.53 35.6991 74.9904 35.4911C74.451 35.286 73.8048 35.2155 73.0518 35.2794C72.2988 35.3433 71.674 35.5218 71.1774 35.8149C70.681 36.1108 70.318 36.4823 70.0884 36.9295C69.859 37.3795 69.7669 37.8677 69.8121 38.3942C69.8573 38.9207 70.0312 39.3849 70.3338 39.7869C70.6366 40.1917 71.0577 40.4966 71.5971 40.7017C72.1367 40.9097 72.783 40.9817 73.536 40.9177Z" fill="white"/>
<path d="M65.4898 26.5968L73.4007 22.9114L73.8511 23.8675L66.79 27.1569L68.5191 30.8268L67.6693 31.2227L65.4898 26.5968Z" fill="white"/>
<path d="M59.3771 19.0319L65.6677 12.9826L67.7237 15.0965C68.201 15.5873 68.5021 16.0742 68.627 16.5571C68.756 17.0401 68.7432 17.5017 68.5888 17.9418C68.4343 18.382 68.1718 18.7803 67.8012 19.1367C67.4305 19.4931 67.0204 19.7417 66.5708 19.8825C66.1231 20.0252 65.6577 20.0275 65.1744 19.8892C64.6932 19.7489 64.2159 19.4354 63.7425 18.9486L62.2689 17.4335L62.9446 16.7836L64.3945 18.2744C64.7213 18.6104 65.0421 18.8241 65.3569 18.9155C65.6717 19.007 65.973 19.003 66.2607 18.9036C66.5525 18.8043 66.8244 18.6336 67.0762 18.3914C67.3281 18.1491 67.5078 17.8857 67.6153 17.601C67.7248 17.3184 67.7358 17.02 67.6484 16.706C67.563 16.3901 67.3549 16.062 67.0242 15.7219L65.7288 14.39L60.1139 19.7895L59.3771 19.0319Z" fill="white"/>
<path d="M54.9257 6.18945L55.3637 10.4297L55.4252 10.4593L59.0418 8.17087L60.163 8.71059L55.7801 11.4436L56.3427 16.5573L55.2215 16.0176L54.7536 11.8386L54.6922 11.809L51.1054 14.0362L49.9842 13.4964L54.4285 10.793L53.8045 5.64973L54.9257 6.18945Z" fill="white"/>
<path d="M41.4707 12.043L42.4017 3.36553L47.6393 3.9211L47.5393 4.85325L43.3526 4.40915L43.038 7.34119L46.9536 7.75652L46.8536 8.68867L42.938 8.27335L42.6217 11.2223L46.8762 11.6736L46.7762 12.6058L41.4707 12.043Z" fill="white"/>
</svg>
