<svg width="82" height="81" viewBox="0 0 82 81" fill="none" xmlns="http://www.w3.org/2000/svg">
<path d="M46.8889 36.4444C47.2352 36.4444 47.5255 36.338 47.7597 36.125C47.994 35.912 48.1111 35.6481 48.1111 35.3333C48.1111 35.0185 47.994 34.7546 47.7597 34.5417C47.5255 34.3287 47.2352 34.2222 46.8889 34.2222C46.5426 34.2222 46.2523 34.3287 46.0181 34.5417C45.7838 34.7546 45.6667 35.0185 45.6667 35.3333C45.6667 35.6481 45.7838 35.912 46.0181 36.125C46.2523 36.338 46.5426 36.4444 46.8889 36.4444ZM42 36.4444C42.3463 36.4444 42.6366 36.338 42.8708 36.125C43.1051 35.912 43.2222 35.6481 43.2222 35.3333C43.2222 35.0185 43.1051 34.7546 42.8708 34.5417C42.6366 34.3287 42.3463 34.2222 42 34.2222C41.6537 34.2222 41.3634 34.3287 41.1292 34.5417C40.8949 34.7546 40.7778 35.0185 40.7778 35.3333C40.7778 35.6481 40.8949 35.912 41.1292 36.125C41.3634 36.338 41.6537 36.4444 42 36.4444ZM37.1111 36.4444C37.4574 36.4444 37.7477 36.338 37.9819 36.125C38.2162 35.912 38.3333 35.6481 38.3333 35.3333C38.3333 35.0185 38.2162 34.7546 37.9819 34.5417C37.7477 34.3287 37.4574 34.2222 37.1111 34.2222C36.7648 34.2222 36.4745 34.3287 36.2403 34.5417C36.006 34.7546 35.8889 35.0185 35.8889 35.3333C35.8889 35.6481 36.006 35.912 36.2403 36.125C36.4745 36.338 36.7648 36.4444 37.1111 36.4444ZM33.4444 39.7778V49.7778H50.5556V39.7778H33.4444ZM39.5556 44.2222H44.4444V42H39.5556V44.2222ZM33.4444 52C32.7722 52 32.1968 51.7824 31.7181 51.3472C31.2394 50.912 31 50.3889 31 49.7778V34.2222C31 33.6111 31.2394 33.088 31.7181 32.6528C32.1968 32.2176 32.7722 32 33.4444 32H50.5556C51.2278 32 51.8032 32.2176 52.2819 32.6528C52.7606 33.088 53 33.6111 53 34.2222V49.7778C53 50.3889 52.7606 50.912 52.2819 51.3472C51.8032 51.7824 51.2278 52 50.5556 52H33.4444Z" fill="#E8EAED"/>
<path d="M31.626 6.66904C31.438 6.27682 31.1332 6.02614 30.7116 5.917C30.2901 5.80785 29.8291 5.83806 29.3286 6.00761C28.9627 6.13159 28.6627 6.29921 28.4286 6.51048C28.1973 6.72083 28.0403 6.95549 27.9576 7.21446C27.8777 7.47251 27.8827 7.73327 27.9727 7.99673C28.048 8.21717 28.1652 8.38893 28.3243 8.51199C28.4852 8.63145 28.667 8.71535 28.8696 8.76368C29.0714 8.80932 29.2752 8.83475 29.4811 8.83997C29.6861 8.8425 29.8722 8.83795 30.0393 8.82632L30.956 8.76773C31.1905 8.75126 31.4566 8.74809 31.7543 8.75823C32.0546 8.76745 32.3553 8.81707 32.6562 8.90708C32.9589 8.9935 33.2351 9.14289 33.4848 9.35525C33.7345 9.56762 33.9254 9.86736 34.0577 10.2545C34.2101 10.7008 34.2309 11.1437 34.1198 11.5832C34.0115 12.0219 33.7703 12.423 33.3962 12.7867C33.0248 13.1495 32.5216 13.4385 31.8866 13.6536C31.2946 13.8542 30.7494 13.9324 30.251 13.8883C29.7553 13.8432 29.3254 13.6919 28.9612 13.4344C28.5997 13.1759 28.3257 12.8263 28.1391 12.3856L29.1723 12.0356C29.3057 12.3383 29.4989 12.5608 29.7516 12.7032C30.0062 12.8419 30.2917 12.9131 30.6082 12.9169C30.9265 12.9171 31.2497 12.8615 31.578 12.7503C31.9601 12.6209 32.282 12.4428 32.5438 12.2161C32.8047 11.9868 32.9858 11.7304 33.0872 11.4472C33.1876 11.1612 33.1864 10.8676 33.0835 10.5665C32.9899 10.2923 32.8369 10.0952 32.6248 9.97506C32.4127 9.85497 32.1631 9.78354 31.8761 9.76078C31.5892 9.73802 31.2866 9.73554 30.9685 9.75334L29.8522 9.80757C29.1431 9.84085 28.5414 9.74925 28.0471 9.53276C27.5529 9.31627 27.2107 8.92978 27.0206 8.37328C26.8626 7.91089 26.85 7.46524 26.9826 7.03636C27.1171 6.60387 27.3643 6.22017 27.7242 5.88527C28.0859 5.54677 28.5304 5.28818 29.0578 5.10951C29.5906 4.92902 30.0967 4.86402 30.5763 4.91451C31.055 4.96232 31.4714 5.10919 31.8256 5.35513C32.1825 5.60015 32.4388 5.92874 32.5946 6.34088L31.626 6.66904Z" fill="white"/>
<path d="M17.9416 11.0911L23.4125 17.8907L22.5864 18.5498L17.1155 11.7502L17.9416 11.0911Z" fill="white"/>
<path d="M15.0888 27.8086L14.5185 28.7585L8.66916 21.5464L9.23068 20.6111L18.3789 22.3283L17.8086 23.2782L10.1538 21.7558L10.1187 21.8143L15.0888 27.8086ZM12.3701 25.7138L14.6688 21.8849L15.4744 22.3645L13.1757 26.1934L12.3701 25.7138Z" fill="white"/>
<path d="M3.33588 41.6765L3.41975 40.4179L10.8455 37.9363L10.8523 37.8343L3.82099 34.3972L3.90487 33.1386L12.6131 33.7141L12.5474 34.7006L5.93115 34.2633L5.92549 34.3484L12.3604 37.5069L12.2969 38.4593L5.49931 40.7433L5.49364 40.8283L12.1099 41.2656L12.0442 42.252L3.33588 41.6765Z" fill="white"/>
<path d="M15.1995 53.0949L7.12285 56.4015L5.11305 51.533L5.98065 51.1778L7.5872 55.0694L10.3162 53.9522L8.81374 50.3126L9.68135 49.9574L11.1838 53.597L13.9286 52.4733L12.2961 48.5186L13.1637 48.1634L15.1995 53.0949Z" fill="white"/>
<path d="M21.2198 60.946L23.1798 62.7931L17.1679 69.1194L15.1211 67.1905C14.505 66.6099 14.0982 65.9864 13.9006 65.32C13.701 64.6557 13.7085 63.9777 13.923 63.2859C14.1356 62.5962 14.5531 61.9239 15.1754 61.269C15.8016 60.61 16.4586 60.1537 17.1464 59.9001C17.8322 59.6486 18.5218 59.6075 19.2151 59.7769C19.9065 59.9484 20.5748 60.3381 21.2198 60.946ZM21.7649 62.7478L20.6236 61.6723C20.0985 61.1774 19.5674 60.8682 19.0304 60.7446C18.4933 60.621 17.9629 60.6657 17.4392 60.8787C16.9154 61.0917 16.4089 61.4556 15.9197 61.9704C15.4343 62.4812 15.1003 62.9997 14.9174 63.5262C14.7326 64.0547 14.7127 64.5747 14.8577 65.086C15.0008 65.5995 15.3204 66.09 15.8166 66.5577L17.0446 67.715L21.7649 62.7478Z" fill="white"/>
<path d="M35.6365 72.8308C35.6557 71.9106 35.8385 71.1187 36.1848 70.4553C36.5311 69.7919 36.9978 69.2844 37.5848 68.9329C38.1719 68.5813 38.8374 68.4132 39.5816 68.4287C40.3258 68.4441 40.9837 68.6396 41.5556 69.0152C42.1274 69.3907 42.5725 69.9171 42.8908 70.5943C43.2091 71.2715 43.3586 72.0702 43.3394 72.9905C43.3201 73.9107 43.1374 74.7026 42.791 75.366C42.4447 76.0294 41.978 76.5369 41.391 76.8884C40.804 77.24 40.1384 77.4081 39.3942 77.3926C38.6501 77.3772 37.9921 77.1817 37.4203 76.8061C36.8485 76.4306 36.4034 75.9042 36.0851 75.227C35.7668 74.5498 35.6172 73.7511 35.6365 72.8308ZM36.659 72.852C36.6432 73.6075 36.7563 74.2478 36.9982 74.7728C37.2373 75.2978 37.5685 75.6982 37.9918 75.9741C38.4122 76.2499 38.8866 76.3933 39.4149 76.4042C39.9432 76.4152 40.4246 76.2916 40.859 76.0335C41.2907 75.7753 41.6383 75.389 41.902 74.8745C42.1628 74.3599 42.3011 73.7248 42.3169 72.9693C42.3327 72.2138 42.221 71.5735 41.9819 71.0486C41.74 70.5236 41.4088 70.1232 40.9883 69.8473C40.565 69.5715 40.0892 69.428 39.5609 69.4171C39.0326 69.4061 38.5527 69.5297 38.1211 69.7879C37.6866 70.046 37.339 70.4323 37.0781 70.9469C36.8145 71.4615 36.6748 72.0965 36.659 72.852Z" fill="white"/>
<path d="M52.5982 73.0878C52.8206 73.4616 53.1467 73.6841 53.5764 73.7552C54.0061 73.8263 54.4627 73.7551 54.946 73.5416C55.2995 73.3855 55.5833 73.1919 55.7975 72.9606C56.0092 72.7305 56.1445 72.4828 56.2037 72.2176C56.2602 71.9535 56.2319 71.6942 56.1186 71.4399C56.0238 71.2271 55.8917 71.0665 55.7222 70.9582C55.5512 70.8536 55.3626 70.7862 55.1564 70.7562C54.9513 70.7287 54.746 70.7215 54.5404 70.7347C54.336 70.7505 54.151 70.7716 53.9855 70.7981L53.0776 70.9382C52.8455 70.9755 52.5807 71.0024 52.2832 71.0188C51.9832 71.0364 51.6792 71.0138 51.3714 70.951C51.0621 70.8919 50.7736 70.7678 50.5058 70.5786C50.2381 70.3894 50.021 70.1079 49.8546 69.7342C49.6628 69.3034 49.6024 68.8642 49.6737 68.4166C49.7423 67.9701 49.9467 67.5491 50.2868 67.1536C50.6243 66.7592 51.0997 66.4266 51.713 66.1557C52.2847 65.9032 52.8208 65.7767 53.3213 65.7762C53.8191 65.7768 54.261 65.8892 54.6468 66.1132C55.0301 66.3383 55.3344 66.662 55.5597 67.0842L54.5618 67.5249C54.4018 67.2354 54.1895 67.031 53.9249 66.9118C53.6589 66.7963 53.3681 66.7509 53.0525 66.7753C52.7354 66.8036 52.4183 66.8877 52.1013 67.0277C51.7323 67.1907 51.4275 67.3967 51.187 67.6458C50.9477 67.8974 50.7902 68.1688 50.7146 68.46C50.6402 68.7537 50.6677 69.0459 50.7971 69.3366C50.915 69.6013 51.085 69.784 51.3071 69.8847C51.5291 69.9854 51.7841 70.0342 52.0721 70.0313C52.36 70.0284 52.6616 70.0039 52.9769 69.9578L54.0841 69.8042C54.7875 69.7079 55.3951 69.7454 55.9069 69.917C56.4186 70.0885 56.7941 70.4428 57.0334 70.98C57.2321 71.4264 57.2847 71.8691 57.1909 72.308C57.0957 72.7507 56.8838 73.1548 56.5553 73.5204C56.2253 73.8897 55.8056 74.1869 55.2962 74.4118C54.7817 74.639 54.2833 74.7489 53.801 74.7414C53.3199 74.7365 52.8919 74.6273 52.517 74.414C52.1395 74.2018 51.8547 73.8975 51.6626 73.501L52.5982 73.0878Z" fill="white"/>
<path d="M62.4996 64.9726C61.8035 64.3705 61.3111 63.7248 61.0225 63.0357C60.7339 62.3466 60.6425 61.6648 60.7484 60.9901C60.8543 60.3155 61.1519 59.6977 61.6412 59.1367C62.1304 58.5758 62.703 58.1959 63.359 57.997C64.0149 57.7981 64.7057 57.7928 65.4312 57.9809C66.1568 58.169 66.8677 58.5641 67.5638 59.1663C68.26 59.7684 68.7524 60.414 69.041 61.1031C69.3296 61.7922 69.421 62.4741 69.3151 63.1488C69.2091 63.8234 68.9116 64.4412 68.4223 65.0022C67.9331 65.5631 67.3605 65.943 66.7045 66.1419C66.0486 66.3407 65.3578 66.3461 64.6322 66.158C63.9067 65.9699 63.1958 65.5748 62.4996 64.9726ZM63.1719 64.2019C63.7434 64.6962 64.3089 65.0182 64.8683 65.1677C65.4258 65.3194 65.9466 65.321 66.4305 65.1724C66.9126 65.026 67.3273 64.7536 67.6746 64.3554C68.0219 63.9572 68.2356 63.5091 68.3156 63.0111C68.3937 62.5152 68.3193 62.002 68.0922 61.4713C67.8634 60.9428 67.4631 60.4314 66.8916 59.937C66.3201 59.4427 65.7555 59.1196 65.198 58.9679C64.6386 58.8184 64.1179 58.8168 63.6358 58.9633C63.1518 59.1119 62.7362 59.3853 62.3889 59.7835C62.0416 60.1817 61.8288 60.6287 61.7507 61.1246C61.6707 61.6226 61.7452 62.1358 61.974 62.6643C62.2011 63.195 62.6003 63.7075 63.1719 64.2019Z" fill="white"/>
<path d="M68.5795 45.7601L76.9776 48.1342L76.1692 50.9701C75.9823 51.6258 75.7168 52.1323 75.3727 52.4897C75.0313 52.8478 74.6377 53.0731 74.1919 53.1655C73.7461 53.258 73.2758 53.2343 72.7809 53.0944C72.2861 52.9545 71.8762 52.7294 71.5511 52.419C71.226 52.1086 71.0137 51.7135 70.9141 51.2337C70.8173 50.7546 70.8616 50.19 71.0469 49.5398L71.7011 47.2448L72.6197 47.5045L71.9748 49.7666C71.8471 50.2147 71.8099 50.5939 71.8632 50.9042C71.9158 51.2172 72.0449 51.4692 72.2504 51.6602C72.4579 51.8546 72.7297 51.9994 73.066 52.0944C73.4022 52.1895 73.714 52.2097 74.0014 52.1552C74.2887 52.1006 74.54 51.9546 74.7554 51.7173C74.9735 51.4808 75.1471 51.1358 75.2764 50.6823L75.7858 48.8955L68.2897 46.7764L68.5795 45.7601ZM71.2259 50.7772L66.8646 51.7761L67.201 50.5959L71.553 49.6297L71.2259 50.7772Z" fill="white"/>
<path d="M73.6389 39.3481C72.7304 39.496 71.9184 39.4597 71.2028 39.2394C70.4872 39.0191 69.9031 38.6522 69.4503 38.1387C68.9975 37.6252 68.7109 37.0013 68.5904 36.2668C68.4699 35.5323 68.5421 34.8499 68.8072 34.2196C69.0723 33.5893 69.5088 33.0563 70.1167 32.6206C70.7246 32.1849 71.4828 31.8931 72.3913 31.7453C73.2999 31.5974 74.1119 31.6337 74.8275 31.854C75.543 32.0743 76.1272 32.4412 76.58 32.9547C77.0327 33.4682 77.3194 34.0922 77.4399 34.8267C77.5604 35.5611 77.4881 36.2435 77.2231 36.8739C76.958 37.5042 76.5215 38.0372 75.9136 38.4728C75.3056 38.9085 74.5474 39.2003 73.6389 39.3481ZM73.4733 38.3389C74.2192 38.2175 74.8282 37.9903 75.3004 37.6573C75.7731 37.3271 76.1064 36.9289 76.3006 36.4627C76.4951 35.9993 76.5496 35.5069 76.4641 34.9854C76.3785 34.464 76.1692 34.0131 75.8362 33.6327C75.5036 33.255 75.0603 32.9832 74.5062 32.8172C73.9526 32.654 73.3028 32.6331 72.557 32.7545C71.8111 32.8759 71.2018 33.1017 70.7292 33.4319C70.257 33.7649 69.9236 34.1631 69.729 34.6265C69.5349 35.0927 69.4806 35.5865 69.5662 36.108C69.6517 36.6294 69.8608 37.0789 70.1934 37.4565C70.5264 37.837 70.9698 38.1088 71.5234 38.272C72.0775 38.438 72.7274 38.4603 73.4733 38.3389Z" fill="white"/>
<path d="M62.5976 22.3127L69.7976 17.3807L71.5316 19.8912C71.8772 20.3915 72.0754 20.8634 72.1264 21.3071C72.1797 21.7493 72.116 22.1493 71.9351 22.5074C71.7566 22.8638 71.4916 23.1624 71.14 23.4032C70.8307 23.6151 70.5372 23.7352 70.2598 23.7634C69.984 23.794 69.7261 23.7605 69.4862 23.6632C69.2479 23.5681 69.0296 23.437 68.8313 23.2698L68.761 23.318C68.8987 23.5474 68.9739 23.8212 68.9867 24.1396C68.9994 24.458 68.9262 24.7819 68.767 25.1113C68.6079 25.4408 68.3384 25.7355 67.9588 25.9956C67.5978 26.2428 67.2167 26.3834 66.8154 26.4172C66.4141 26.4511 66.0072 26.3493 65.5946 26.1119C65.1821 25.8746 64.7804 25.473 64.3897 24.9073L62.5976 22.3127ZM63.9716 22.6525L65.1632 24.3775C65.5555 24.9456 65.9442 25.2733 66.3292 25.3608C66.7181 25.4491 67.0708 25.3848 67.3872 25.1681C67.631 25.0011 67.8132 24.7851 67.9339 24.5199C68.0569 24.2531 68.1014 23.9627 68.0674 23.6485C68.0357 23.3327 67.9117 23.0182 67.6954 22.705L66.4748 20.9378L63.9716 22.6525ZM67.2341 20.4177L68.3482 22.0305C68.529 22.2923 68.7436 22.4931 68.9921 22.6329C69.2421 22.7749 69.5037 22.8437 69.7768 22.8391C70.0515 22.8369 70.3154 22.7491 70.5685 22.5757C70.8849 22.359 71.0774 22.0653 71.1459 21.6947C71.2168 21.3224 71.0876 20.8979 70.7582 20.421L69.6248 18.7801L67.2341 20.4177Z" fill="white"/>
<path d="M53.2596 14.9716L52.3091 14.4024L59.5698 8.57811L60.5057 9.13861L58.7434 18.2558L57.7929 17.6866L59.3533 10.0578L59.2948 10.0227L53.2596 14.9716ZM55.3729 12.2636L59.2042 14.5581L58.7196 15.3606L54.8882 13.0661L55.3729 12.2636Z" fill="white"/>
<path d="M47.0505 6.09426C47.0503 5.65947 46.8835 5.30246 46.5503 5.02322C46.2171 4.74398 45.7881 4.57366 45.2632 4.51227C44.8795 4.46739 44.5364 4.49018 44.2339 4.58066C43.9343 4.67146 43.6913 4.81608 43.5048 5.01451C43.3212 5.21327 43.213 5.4509 43.1804 5.72739C43.1531 5.95874 43.1847 6.16408 43.2751 6.34341C43.3687 6.52025 43.4965 6.67392 43.6584 6.80442C43.8207 6.93209 43.9936 7.04242 44.1772 7.1354C44.3611 7.22555 44.531 7.3012 44.6868 7.36233L45.5392 7.7023C45.7579 7.78795 45.9994 7.89914 46.2636 8.03588C46.5307 8.17294 46.7805 8.34661 47.0132 8.55688C47.249 8.76466 47.4336 9.01795 47.5672 9.31673C47.7007 9.61552 47.7435 9.96805 47.6956 10.3743C47.6404 10.8427 47.4677 11.2515 47.1776 11.6009C46.8904 11.9505 46.4994 12.2094 46.0047 12.3775C45.5129 12.546 44.934 12.5912 44.2681 12.5133C43.6473 12.4407 43.1216 12.2777 42.6909 12.0242C42.2631 11.7711 41.9405 11.4502 41.7231 11.0615C41.5086 10.6732 41.4124 10.24 41.4344 9.76209L42.518 9.88883C42.5076 10.2194 42.5857 10.5031 42.7523 10.74C42.922 10.9744 43.1489 11.1611 43.4328 11.3001C43.7199 11.4367 44.0356 11.5251 44.3799 11.5654C44.7805 11.6122 45.148 11.5894 45.4821 11.4969C45.8166 11.4016 46.0908 11.2478 46.3046 11.0354C46.5188 10.8202 46.6445 10.5546 46.6818 10.2386C46.7157 9.9508 46.6629 9.70722 46.5234 9.50784C46.3839 9.30846 46.1895 9.137 45.9404 8.99345C45.6913 8.8499 45.4194 8.71799 45.1246 8.5977L44.094 8.16823C43.4398 7.89435 42.9364 7.55374 42.584 7.1464C42.2315 6.73906 42.0898 6.24338 42.1586 5.65936C42.2159 5.17408 42.397 4.76623 42.702 4.43579C43.0102 4.10286 43.399 3.86231 43.8684 3.71414C44.341 3.56348 44.8539 3.5205 45.4069 3.58519C45.9656 3.65054 46.4504 3.80878 46.8613 4.05993C47.2726 4.30825 47.5849 4.61937 47.7982 4.99328C48.0144 5.36751 48.1037 5.77411 48.0663 6.21307L47.0505 6.09426Z" fill="white"/>
</svg>
