<svg width="82" height="81" viewBox="0 0 82 81" fill="none" xmlns="http://www.w3.org/2000/svg">
<path d="M35.1387 50.915V42.1249C33.9353 41.9008 32.9265 41.4525 32.1123 40.78C31.2982 40.1076 30.8912 39.323 30.8912 38.4264V31.7018H33.7229V38.4264H35.1387V31.7018H37.9704V38.4264H39.3863V31.7018H42.2179V38.4264C42.2179 39.323 41.8109 40.1076 40.9968 40.78C40.1827 41.4525 39.1739 41.9008 37.9704 42.1249V50.915H35.1387ZM49.2972 50.915V43.2297H45.0496V36.5051C45.0496 35.1762 45.7399 34.0434 47.1203 33.1067C48.5008 32.1701 50.1703 31.7018 52.1289 31.7018V50.915H49.2972Z" fill="#E8EAED"/>
<path d="M34.5113 77.2054L33.2979 76.8608L32.4415 69.0869L32.3432 69.059L27.4933 75.2125L26.2799 74.868L28.6854 66.4788L29.6364 66.7488L27.8088 73.1227L27.8908 73.1459L32.342 67.5171L33.2602 67.7778L34.0562 74.8966L34.1381 74.9199L35.9658 68.5461L36.9168 68.8161L34.5113 77.2054Z" fill="white"/>
<path d="M23.2593 63.0635L24.0678 63.821L15.7317 67.97L14.9355 67.2241L18.5945 58.6933L19.4031 59.4508L16.2575 66.5707L16.3073 66.6174L23.2593 63.0635ZM20.6179 65.2603L17.3588 62.207L18.0031 61.526L21.2622 64.5793L20.6179 65.2603Z" fill="white"/>
<path d="M8.26695 57.0672L7.39784 57.4187L4.92312 51.3591L5.79223 51.0076L6.82981 53.5482L14.0513 50.6276L14.4509 51.6059L7.22937 54.5266L8.26695 57.0672Z" fill="white"/>
<path d="M12.0506 42.1296L12.0022 43.2365L3.42318 39.6571L3.47088 38.5672L12.3301 35.7436L12.2816 36.8505L4.82791 39.1379L4.82493 39.206L12.0506 42.1296ZM8.6626 41.5733L8.85785 37.1116L9.79447 37.1522L9.59922 41.6139L8.6626 41.5733Z" fill="white"/>
<path d="M18.262 22.7213L17.4846 23.5107L13.4855 15.134L14.251 14.3568L22.7473 18.1671L21.9699 18.9565L14.8806 15.6851L14.8327 15.7337L18.262 22.7213ZM16.1086 20.0496L19.2423 16.8677L19.9134 17.5223L16.7797 20.7041L16.1086 20.0496Z" fill="white"/>
<path d="M39.8078 5.58683C39.7223 5.16043 39.4888 4.84268 39.1073 4.63356C38.7257 4.42444 38.2715 4.34077 37.7448 4.38256C37.3596 4.41311 37.0276 4.50214 36.7487 4.64966C36.4727 4.79695 36.2627 4.98602 36.1187 5.21688C35.9776 5.44751 35.9181 5.70159 35.9404 5.97911C35.959 6.21132 36.0302 6.40658 36.154 6.5649C36.2805 6.72016 36.4359 6.84605 36.6203 6.94256C36.8045 7.03624 36.9958 7.11084 37.194 7.16636C37.392 7.21905 37.5735 7.26023 37.7383 7.2899L38.6409 7.45768C38.8722 7.49918 39.1309 7.56131 39.4168 7.64407C39.7056 7.72661 39.9846 7.84839 40.254 8.00941C40.526 8.16737 40.7568 8.3799 40.9464 8.647C41.1359 8.91409 41.247 9.25153 41.2797 9.65932C41.3173 10.1294 41.2282 10.564 41.0122 10.963C40.799 11.3618 40.4664 11.6916 40.0142 11.9527C39.5648 12.2134 39.0059 12.3703 38.3376 12.4234C37.7145 12.4728 37.167 12.415 36.6949 12.2502C36.2257 12.085 35.8464 11.833 35.5571 11.494C35.2705 11.1548 35.0912 10.7487 35.0191 10.2756L36.1066 10.1894C36.1613 10.5156 36.2935 10.7787 36.5033 10.9787C36.7157 11.1755 36.9748 11.3146 37.2806 11.3958C37.5889 11.4739 37.9159 11.4993 38.2614 11.4719C38.6635 11.44 39.0194 11.3462 39.329 11.1905C39.6383 11.0321 39.877 10.8279 40.0451 10.578C40.213 10.3253 40.2842 10.0404 40.2588 9.7232C40.2357 9.43436 40.1361 9.20572 39.9602 9.03728C39.7842 8.86885 39.56 8.73844 39.2876 8.64606C39.0151 8.55368 38.7226 8.47715 38.4099 8.41645L37.3149 8.19553C36.6196 8.05405 36.0592 7.8178 35.6336 7.48678C35.2081 7.15575 34.9719 6.69715 34.9249 6.11096C34.8859 5.62388 34.9836 5.18866 35.2179 4.80529C35.4549 4.41887 35.789 4.10738 36.2204 3.87082C36.6543 3.63121 37.1488 3.48939 37.7039 3.44535C38.2647 3.40087 38.7711 3.46186 39.2234 3.62833C39.6754 3.79196 40.0427 4.03641 40.3252 4.36167C40.6106 4.68671 40.778 5.06814 40.8273 5.50595L39.8078 5.58683Z" fill="white"/>
<path d="M55.6741 6.52645L56.6674 6.88727L54.6775 12.3122C54.472 12.8723 54.1564 13.3244 53.7306 13.6685C53.3085 14.0108 52.812 14.2219 52.2411 14.3016C51.6712 14.3787 51.0644 14.3004 50.4209 14.0666C49.7774 13.8329 49.2626 13.5038 48.8766 13.0795C48.4916 12.6525 48.2472 12.1722 48.1433 11.6388C48.043 11.1037 48.0956 10.5561 48.3011 9.99596L50.291 4.571L51.2843 4.93183L49.3237 10.2768C49.177 10.6768 49.1345 11.0649 49.1962 11.441C49.259 11.8144 49.4205 12.1496 49.6807 12.4466C49.9445 12.742 50.3048 12.9726 50.7614 13.1384C51.218 13.3043 51.6428 13.3589 52.0358 13.3022C52.4298 13.2428 52.7703 13.0899 53.0573 12.8436C53.348 12.5955 53.5668 12.2715 53.7135 11.8714L55.6741 6.52645Z" fill="white"/>
<path d="M58.8949 18.5625L58.1174 17.7731L66.6138 13.9627L67.3792 14.74L63.3802 23.1167L62.6027 22.3273L66.032 15.3397L65.9842 15.2911L58.8949 18.5625ZM61.6224 16.4737L64.7562 19.6556L64.085 20.3101L60.9513 17.1283L61.6224 16.4737Z" fill="white"/>
<path d="M68.8853 35.993L77.5974 35.4771L77.9097 40.7007L76.9738 40.7562L76.7246 36.5875L73.7809 36.7618L74.0067 40.5391L73.0709 40.5945L72.845 36.8172L68.9484 37.0479L68.8853 35.993Z" fill="white"/>
<path d="M69.678 56.1049C68.8247 55.7598 68.1501 55.3077 67.6543 54.7486C67.1584 54.1895 66.8515 53.5735 66.7335 52.9006C66.6155 52.2278 66.6972 51.5468 66.9786 50.8577C67.26 50.1687 67.6788 49.624 68.235 49.2238C68.7913 48.8236 69.443 48.5954 70.1902 48.539C70.9374 48.4827 71.7377 48.6271 72.591 48.9722C73.4443 49.3173 74.1189 49.7694 74.6148 50.3285C75.1106 50.8876 75.4176 51.5036 75.5356 52.1764C75.6536 52.8493 75.5719 53.5303 75.2904 54.2194C75.009 54.9084 74.5902 55.453 74.034 55.8532C73.4778 56.2534 72.826 56.4817 72.0788 56.538C71.3316 56.5944 70.5314 56.45 69.678 56.1049ZM70.0647 55.1581C70.7653 55.4414 71.4043 55.5635 71.9819 55.5243C72.5584 55.4878 73.0515 55.321 73.4612 55.024C73.8699 54.7296 74.1741 54.3379 74.3739 53.8487C74.5737 53.3595 74.6309 52.8663 74.5455 52.369C74.4591 51.8744 74.2227 51.4126 73.8363 50.9836C73.4489 50.5572 72.9049 50.2024 72.2043 49.919C71.5038 49.6357 70.8652 49.5123 70.2888 49.5488C69.7112 49.588 69.2181 49.7547 68.8094 50.0491C68.3997 50.3461 68.0949 50.7392 67.8951 51.2284C67.6953 51.7176 67.6387 52.2095 67.7251 52.7041C67.8105 53.2014 68.0469 53.6632 68.4343 54.0896C68.8207 54.5186 69.3642 54.8747 70.0647 55.1581Z" fill="white"/>
<path d="M67.621 66.2679L66.6475 67.07L59.7251 63.3874L59.6462 63.4524L61.9907 70.9072L61.0173 71.7093L55.4352 65.0007L56.1982 64.372L60.4392 69.469L60.505 69.4148L58.3688 62.5834L59.1055 61.9764L65.4513 65.3391L65.517 65.2849L61.276 60.1879L62.039 59.5592L67.621 66.2679Z" fill="white"/>
<path d="M49.8422 67.3562L51.843 75.851L46.7136 77.0474L46.4987 76.1349L50.5989 75.1786L49.9228 72.3082L46.0883 73.2026L45.8733 72.2901L49.7079 71.3957L49.028 68.5088L44.8614 69.4806L44.6465 68.5681L49.8422 67.3562Z" fill="white"/>
</svg>
